# xmcd
#
# Track frame offsets:
#	150
#	6357
#	24782
#	46943
#	76240
#	101795
#	119840
#	152881
#	168303
#
# Disc length: 2725 seconds
#
# Revision: 1
# Processed by: cddbd v1.5.1PL2 Copyright (c) Steve Scherf et al.
# Submitted via: EasyCDDAExtractor 9.0.0.1
#
DISCID=680aa309
DTITLE=Black Sabbath - Sunrise Musical Theater Miami 13-03-94 Disc 1
DYEAR=1994
DGENRE=Hard Rock
TTITLE0=Supertzar
TTITLE1=Time Machine
TTITLE2=Children Of The Grave
TTITLE3=Children Of The Sea
TTITLE4=I Witness
TTITLE5=The Mob Rules
TTITLE6=Into The Void
TTITLE7=Psychophobia
TTITLE8=Black Sabbath
EXTD=
EXTT0=
EXTT1=
EXTT2=
EXTT3=
EXTT4=
EXTT5=
EXTT6=
EXTT7=
EXTT8=
PLAYORDER=
